<svg width="100%" height="100%" overflow="visible" style="display: block;" viewBox="0 0 102 48" fill="none" xmlns="http://www.w3.org/2000/svg">
<g id="Weather Icon">
<circle id="Ray 1" cx="67.5" cy="24" r="2" transform="rotate(90 67.5 24)" fill="#F2BA4B"/>
<circle id="Ray 2" cx="62.5208" cy="36.021" r="2" transform="rotate(135 62.5208 36.021)" fill="#F2BA4B"/>
<path id="Sun" d="M39.8632 9.12695C44.8337 9.12695 48.8632 13.1564 48.8632 18.127C48.8629 23.0973 44.8336 27.127 39.8632 27.127C34.8928 27.1269 30.8634 23.0972 30.8632 18.127C30.8632 13.1565 34.8927 9.12705 39.8632 9.12695Z" fill="#F2BA4B"/>
<path id="Cloud" d="M58.5155 9.0459C67.0489 9.04599 73.9666 15.9636 73.9667 24.4971C73.9667 32.8973 67.2632 39.7319 58.9139 39.9434L58.5155 39.9482H37.2694L36.743 39.9346C31.3345 39.6604 27.0332 35.1886 27.0331 29.7119C27.0331 24.0586 31.6161 19.4758 37.2694 19.4756C39.55 19.4756 41.6566 20.2214 43.3583 21.4824C44.7606 14.3921 51.0136 9.0459 58.5155 9.0459Z" fill="white"/>
</g>
</svg>
